<svg xmlns="http://www.w3.org/2000/svg" 
    xmlns:xlink="http://www.w3.org/1999/xlink" version="1.1" x="0px" y="0px" viewBox="0 0 100 125" enable-background="new 0 0 100 100" xml:space="preserve">
    <g>
        <path fill="#95141E" d="M54.021,64.142c0,1.702,0.4,3.346,1.137,4.828c3.899-1.414,6.16-3.476,5.695-6.318c-0.448-2.746-1.07-5.288-1.848-7.639   c-0.656,0.42-1.273,0.909-1.838,1.477C55.141,58.538,54.021,61.256,54.021,64.142z"/>
        <path fill="#95141E" d="M51.21,50.485c1.265-1.275,2.675-2.346,4.191-3.205c-2.807-4.36-6.54-7.483-11.216-9.157   c-1.553,0.848-3.222,1.464-4.947,1.846l-2.174,4.158h-3.262l-2.139-4.066c-1.835-0.356-3.594-0.976-5.232-1.853   c-8.922,3.306-14.392,11.899-16.442,24.444c-1.031,6.322,11.385,8.798,25.432,8.798c4.009,0,7.886-0.205,11.355-0.641   c-0.768-2.108-1.172-4.354-1.172-6.667C45.604,58.986,47.596,54.134,51.21,50.485z M35.428,68.444l-5.279-5.975l3.635-16.711h3.263   l3.657,16.711L35.428,68.444z"/>
        <path fill="#95141E" d="M24.739,33.48c2.508,2.221,5.586,3.542,8.762,3.891l0.012,0c4.039,0.448,8.267-0.673,11.686-3.449   c3.426-2.768,5.422-6.706,5.86-10.786c0.445-4.078-0.664-8.356-3.415-11.804c-2.751-3.46-6.647-5.478-10.692-5.92   c-4.043-0.449-8.279,0.671-11.701,3.453c-3.421,2.771-5.416,6.701-5.854,10.78c-0.35,3.206,0.264,6.529,1.876,9.479   C19.016,30.914,7.357,39.383,7.357,39.383c-2.644,2.149-2.868,4.385-1.638,5.929c1.227,1.545,3.441,1.808,6.088-0.334   C11.808,44.978,22.518,35.314,24.739,33.48z M23.597,20.336c0.321-2.949,1.739-5.75,4.211-7.748   c2.474-2.008,5.494-2.808,8.414-2.485c2.917,0.325,5.695,1.759,7.689,4.257c1.982,2.49,2.772,5.542,2.454,8.487   c-0.32,2.95-1.742,5.755-4.213,7.757s-5.492,2.795-8.411,2.479c-2.923-0.325-5.702-1.763-7.688-4.261   C24.071,26.33,23.28,23.282,23.597,20.336z"/>
        <path fill="#95141E" d="M81.838,64.134c-0.001-4.61-1.779-8.944-5.011-12.203c-3.229-3.261-7.52-5.058-12.09-5.058   c-4.568,0-8.861,1.795-12.093,5.058c-3.232,3.266-5.012,7.604-5.012,12.211c0,4.613,1.78,8.947,5.013,12.204   c3.225,3.263,7.52,5.055,12.088,5.055c3.545,0,6.925-1.087,9.771-3.096c1.619,1.597,12.887,14.238,12.887,14.238   c2.624,2.646,5.057,2.625,6.573,1.095c1.517-1.532,1.534-3.986-1.084-6.636c0,0-12.522-11.371-14.105-13.008   C80.763,71.119,81.838,67.71,81.838,64.134z M55.731,73.229c-2.407-2.427-3.735-5.654-3.735-9.088c0-3.432,1.329-6.661,3.738-9.101   c2.403-2.424,5.602-3.76,9.004-3.76c3.401,0,6.598,1.336,9.001,3.763c2.406,2.431,3.733,5.657,3.733,9.09   c0,3.435-1.325,6.662-3.733,9.093l-0.004,0.004c-2.405,2.426-5.602,3.763-9.002,3.764C61.331,76.995,58.137,75.656,55.731,73.229z"/>
    </g>
</svg>