<svg xmlns="http://www.w3.org/2000/svg" data-name="Ebene 1" viewBox="0 0 100 125" x="0px" y="0px">
    <path fill="#DBB608" d="M13.9,47.42l1.4.69a2.38,2.38,0,0,0,3-.78,18.27,18.27,0,0,1,9.23-6.92,2.43,2.43,0,0,1,2.65.76h0A3.74,3.74,0,0,0,35,42l2.53-1.56,1.5,4.77,3.13,6a4.56,4.56,0,0,0,3.41,2.4,5.93,5.93,0,0,0,4.59-1.3,1.63,1.63,0,0,0,.33-2.15L49.82,49a4.2,4.2,0,0,1-.66-2.76l1.09-9.89a2.66,2.66,0,0,1,.86-1.68l2.64-2.39a2.12,2.12,0,0,0,.62-2.15,3.8,3.8,0,0,0-4.06-2.75l-1.54.16A2.16,2.16,0,0,1,46.5,26.2a6.64,6.64,0,0,0-3.82-3.86,1.47,1.47,0,0,1-.81-2l1.35-3a4.53,4.53,0,0,0-.08-3.88,6,6,0,0,0-8.39-2.53,5.25,5.25,0,0,0-2.63,4.78l.17,3.93a2.07,2.07,0,0,1-.93,1.82,22,22,0,0,1-5.08,2.47l-.86.29A2.8,2.8,0,0,0,23.51,27a4.32,4.32,0,0,1-2.31,4.07,19.55,19.55,0,0,0-8.39,8.56L11.9,41.5A4.41,4.41,0,0,0,13.9,47.42Z"/>
    <path fill="#DBB608" d="M15,15.94a.8.8,0,0,0,.86-.12l1.6-1.38a1.08,1.08,0,0,1,.8-.26,1.27,1.27,0,0,0,1.13-.51l1-1.38a1.4,1.4,0,0,0,.25-1.09.66.66,0,0,1,.45-.75l.88-.28A1.37,1.37,0,0,0,23,8.54a1,1,0,0,0-1.11-.77l-.65.07A2.58,2.58,0,0,0,19.31,9a1.84,1.84,0,0,1-.79.68l-2,.9a1.4,1.4,0,0,0-.79,1.57,1.13,1.13,0,0,1-.09.73l-1,2A.75.75,0,0,0,15,15.94Z"/>
    <path fill="#DBB608" d="M24.33,84.86l-.49,0a5.19,5.19,0,0,1-2.1-.57.5.5,0,0,1-.08-.83A.78.78,0,0,0,22,82.7a1.91,1.91,0,0,0-1.52-1.59l-1.17-.23a3.4,3.4,0,0,1-2.57-2.25A3.39,3.39,0,0,0,14,76.36a1.34,1.34,0,0,0-1.53,1.44,5.42,5.42,0,0,0,.91,2.56l.35.52a1.1,1.1,0,0,1,.18.71,2.08,2.08,0,0,0,.48,1.52l1.77,2.12a3,3,0,0,0,3.12.95,1.81,1.81,0,0,1,1.39.16l.36.2A4.35,4.35,0,0,0,24,87a1.58,1.58,0,0,0,1.08-.82A.89.89,0,0,0,24.33,84.86Z"/>
    <path fill="#DBB608" d="M78.8,85.37a1.72,1.72,0,0,0-1.81.88l-.35.66a1.19,1.19,0,0,1-1.05.63,1.79,1.79,0,0,0-1.66,1.12l-.14.35a2.41,2.41,0,0,1-2.16,1.5A1,1,0,0,0,70.73,92a1.67,1.67,0,0,0,1.8.94l1.21-.21a4.68,4.68,0,0,1,1.28,0,2.39,2.39,0,0,0,2-.76l.66-.72a2.4,2.4,0,0,0,.63-1.63,1.85,1.85,0,0,1,.58-1.35l.35-.33a1.72,1.72,0,0,0,.53-1.43A1.19,1.19,0,0,0,78.8,85.37Z"/>
    <path fill="#DBB608" d="M69.49,54.29a15.29,15.29,0,0,0,.71-7L70,45.49a.07.07,0,0,1,.13,0,17.71,17.71,0,0,1,2,7,3.69,3.69,0,0,0,2.44,3.21,4.37,4.37,0,0,0,3.78-.4,4.74,4.74,0,0,0,2.23-4.3l-.14-2.43a42.18,42.18,0,0,0-1.06-7.3,8.14,8.14,0,0,1,1.15-6.39,2.57,2.57,0,0,0-.29-3.21,31.26,31.26,0,0,0-13.53-9.2,1,1,0,0,1-.65-1.1,2.65,2.65,0,0,0-1.59-2.9L61.07,17a7.65,7.65,0,0,0-5-.32,5,5,0,0,0-3.66,4.47,4.13,4.13,0,0,0,1,3l1,1.14a.86.86,0,0,0,1.37-.11l.63-1a3.19,3.19,0,0,1,3.47-1.4l1.14.28a3.2,3.2,0,0,1,2.37,3.72L62.61,31a2.24,2.24,0,0,0,1,2.62l1.75,1a2.8,2.8,0,0,1,1.34,2,25.22,25.22,0,0,1-.54,9.51l-.4,1.61a3.31,3.31,0,0,1-2.13,2.32,3,3,0,0,0-2,2.5,25.32,25.32,0,0,1-2.71,9,3.53,3.53,0,0,1-4,1.8l-2.13-.52a.92.92,0,0,1-.68-1.1,9.61,9.61,0,0,0-.05-4.43,2.12,2.12,0,0,0-2.8-1.47,3.8,3.8,0,0,0-1.8,1.41h0a2.93,2.93,0,0,0-.33,2.7l.25.65a.89.89,0,0,1-.45,1.12A96.81,96.81,0,0,1,37,65.88a1,1,0,0,1-1.18-.43l-.78-1.33a5.74,5.74,0,0,0-3.33-2.6l-2.09-.61A2.33,2.33,0,0,1,28.05,58l.58-2.13A5.76,5.76,0,0,0,27,50.21a6.3,6.3,0,0,0-4.41-1.71A5.46,5.46,0,0,0,19,49.93a4.29,4.29,0,0,0-1.4,3.13l0,2.54a7.69,7.69,0,0,0,2,5.23,2.22,2.22,0,0,1,.33,2.5,3.47,3.47,0,0,0,.26,3.58l4.36,6.15.37,2.65a2.82,2.82,0,0,0,4.23,2,2.38,2.38,0,0,1,2.91.39,18.42,18.42,0,0,0,7.72,4.74,15.36,15.36,0,0,0,8.61.15A3.77,3.77,0,0,0,51,80.58h0a4.58,4.58,0,0,0-1.06-4.65h0a1,1,0,0,0-.95-.26h0a9.39,9.39,0,0,1-9-2.44h0a.38.38,0,0,1,.26-.66l3.74-.15A23.6,23.6,0,0,0,53.55,70a2.64,2.64,0,0,1,2.7.2l1.62,1.14a2.43,2.43,0,0,0,3.23-.39A34.06,34.06,0,0,0,67.65,59.6Z"/>
    <path fill="#DBB608" d="M76.91,66l-.78,1.11a3.35,3.35,0,0,1-2.48,1.41,3.55,3.55,0,0,0-2.1.9L68.67,72A2.75,2.75,0,0,0,67.9,75a2.29,2.29,0,0,1-.71,2.49l-3.28,2.73a1.24,1.24,0,0,0-.39,1.33,3,3,0,0,0,1,1.49,3.92,3.92,0,0,0,4.69,0l2.61-1.92a1,1,0,0,1,1.28.12,2.11,2.11,0,0,0,2.38.5,2.82,2.82,0,0,0,1.71-2.46l.18-4A1.3,1.3,0,0,1,78.7,74a1.58,1.58,0,0,0,1.53-1.17l.81-3A4.41,4.41,0,0,0,80.26,66,2.09,2.09,0,0,0,76.91,66Z"/>
    <path fill="#DBB608" d="M88.53,19.51a16.37,16.37,0,0,0-1.47-3.93l-.45-.86a1.21,1.21,0,0,1,.08-1.26,1.34,1.34,0,0,0-.22-1.79L85.71,11a4.56,4.56,0,0,0-2.64-1.1A1.7,1.7,0,0,1,81.69,9l-.4-.77a2.13,2.13,0,0,0-2.14-1.14L78,7.23a1.48,1.48,0,0,0-1.3,1.56A2.48,2.48,0,0,0,78,10.85a5.48,5.48,0,0,1,2.68,3l.73,2a2,2,0,0,0,1.87,1.3.85.85,0,0,1,.84.77l.09,1.08A2.76,2.76,0,0,0,87,21.45h0A1.58,1.58,0,0,0,88.53,19.51Z"/>
</svg>