<svg xmlns="http://www.w3.org/2000/svg" 
    xmlns:xlink="http://www.w3.org/1999/xlink" version="1.1" x="0px" y="0px" viewBox="0 0 100 100" style="enable-background:new 0 0 100 100;" xml:space="preserve">
    <g>
        <path fill="#032E3D" d="M11.4,60.7l-0.1,1.8l3.8,0.2c0-0.9-0.4-1.6-1.1-1.7l-0.5,0l0.8-7.6l0.6,6.8c0,0,0,0,0,0.1l0,0l0.1,0.2   c0,0.1,0.1,0.1,0.1,0.2l0.6,1.2l3.4-1.7c-0.4-0.8-1.2-1.2-1.8-1l-0.4,0.2l-0.7-7.6c0-0.2-0.1-0.4-0.3-0.6c-0.1-0.3-0.4-0.5-0.8-0.6   l-4-1.2l0-0.9c0-0.3,0-0.7-0.1-1l0,0l3.1-3c0.3-0.3,0.3-0.8,0-1.2s-0.8-0.3-1.2,0l-2.3,2.2l-0.1-1c0.2-0.2,0.4-0.4,0.4-0.8   c0-0.2,0-0.3-0.1-0.4c0-0.1-0.1-0.1-0.2-0.2c-0.1-0.2-0.3-0.6-0.4-0.9l-0.1-0.5c0-0.3-0.1-0.5-0.2-0.8l-0.2-0.5   c0.8-0.4,1.5-1.2,2-2c0.3-0.3,0.6-0.6,0.6-1.1c0-0.8-1-1.9-2-2.5c-1-0.6-2.5,0.1-2.9,1.3c-0.4,1.2-1.7,2.2-1.7,2.2   c0.2,0.5,1,0.6,1.5,0.6c0,0.3,0.1,0.6,0.1,0.9c-0.3,0-0.6,0.1-1,0.4C6,40.2,5.6,41,5,42.5c-0.8,2-0.5,7.8-0.3,10.3   c0,0,0.1,1.3,3,1.2c0.1,0,0.1,0,0.2,0c0.5,0,1,0,1.5-0.2l2.7,0L11.4,60.7L11.4,60.7z"/>
        <path fill="#032E3D" d="M84.6,64.4l-0.2-6c0.8,0,1.9,0,2.8,0c0.4,0.1,0.7,0.1,1.1,0.1c0.1,0,0.1,0,0.2,0c1.2,0,1.9-0.2,2.4-0.4   c0.6-0.4,0.9-1.4,0.9-1.4c0.2-2.4,0.3-8.3-0.5-10.3c0-0.1-0.1-0.2-0.1-0.3l1.9-3.9c0,0,0,0,0,0c0,0,0-0.1,0-0.1c0,0,0-0.1,0-0.1   c0,0,0-0.1,0-0.1c0,0,0-0.1,0-0.1c0,0,0-0.1,0-0.1c0,0,0-0.1,0-0.1c0,0,0,0,0-0.1c0,0,0-0.1,0-0.1c0,0,0,0,0,0l-2-4.5   c-0.2-0.4-0.7-0.6-1.1-0.4c-0.4,0.2-0.6,0.7-0.4,1.1l1.9,4.2l-1.3,2.7c-0.1-0.1-0.2-0.2-0.3-0.3c-0.2-0.2-0.4-0.3-0.6-0.4   c0.2-0.4,0.3-0.8,0.3-1.5c0-0.3-0.1-0.6-0.2-0.9l1-0.1c0.2,0,0.4-0.2,0.3-0.4c0-0.1-0.2-0.3-0.3-0.3l-1,0c-0.1,0-0.2-0.1-0.2-0.2   l-0.3-1.5c0-0.1-0.1-0.2-0.2-0.2l-2.4-0.1c-0.1,0-0.3,0.1-0.3,0.2l-0.1,1.7c0,0.1-0.1,0.2-0.2,0.2l-1.4,0.3c-0.1,0-0.2,0.1-0.2,0.3   l0,0.3l1.7-0.1c0,0.2,0,0.4,0,0.6c0.1,0.9,0.6,1.6,1.1,2c-0.1,0.1-0.2,0.1-0.3,0.2c-0.2,0.1-0.3,0.2-0.4,0.4l-1.7,4.6   c0,0.1-0.1,0.2,0,0.4c0,0.1,0,0.1,0,0.2l0.2,2.8l-3.3,0.5c-0.1,0-0.1,0-0.2,0l0,0l0,0c0,0,0,0-0.1,0c-0.4,0.1-0.7,0.3-0.9,0.7   l-1.7,6.1L78,60.4c-0.6-0.1-1.4,0.4-1.6,1.3l3.6,1.1l0.5-1.7l0,0l1.4-4.9l0.6,0.1c-0.1,0.2-0.2,0.5-0.1,0.8c0,0.1,0,0.2,0,0.3   l0.3,7l-0.5,0c-0.7,0.1-1.1,0.8-1.1,1.7l3.8-0.2L84.6,64.4L84.6,64.4z"/>
        <path fill="#032E3D" d="M81.3,72.2l-1.2,0.1l-1.1-2.1c-0.5-1-1.6-1.5-2.7-1.2l-0.1,0c0.2-0.1,0.4-0.4,0.4-0.9c0-0.6-0.3-1.1-0.4-1.5   c0-0.4-0.1-0.7-0.3-1.1c-0.1-0.4-0.2-0.8-0.7-1.3c-0.6-0.5-0.8-0.5-1.2-0.6c-0.4-0.1-0.7-0.1-1.2,0.1c-0.5,0.2-1.3,1-1.8,1.2   c-0.4,0.2-0.8,0.7-0.4,1.1l0.1,0c-0.1,0.4-0.2,0.7-0.2,1.1c0,1.3,0.6,2.3,1.6,2.9l-1.6,0.4c-1.1,0.3-1.9,1.2-1.9,2.3l-0.2,6.4   c0,0-0.9-0.6-1.2-0.8c-0.2-0.2,0,0-0.6-0.3c-0.3-0.1-1,0.1-1.6,0.6c-0.3-1.3-0.6-2.6-0.7-3.2c-0.1-0.2-0.3-0.4-0.5-0.4l-0.4,0   c-0.2,0-0.4-0.1-0.5-0.3l-0.7-1.3c-0.6-1.1-1.9-1.7-3.1-1.4l-1,0.2c0.4-0.5,0.7-1.1,0.8-1.8l0.5-0.1c0,0,0.1-0.1,0.1-0.1   c0.1-0.1,0.1-0.2,0.1-0.3c0,0,0,0,0-0.1c0.1,0,0.2-0.1,0.2-0.2c0-0.1,0-0.3,0-0.4c0,0,0,0,0,0c0.1-0.1,0.2-0.2,0.2-0.3   c0-0.1,0-0.3-0.1-0.4c0.1-0.1,0.2-0.2,0.2-0.3c0-0.1-0.1-0.3-0.2-0.3c0.1-0.1,0.1-0.2,0.1-0.4c0-0.1-0.1-0.2-0.2-0.3   c0.1-0.1,0.1-0.2,0-0.4c0-0.1-0.1-0.2-0.3-0.3c0.1-0.1,0.1-0.3,0-0.4c-0.1-0.1-0.2-0.2-0.3-0.2c0-0.1,0-0.3-0.1-0.4   c-0.1-0.1-0.2-0.2-0.3-0.2c0-0.1,0-0.3-0.1-0.4c-0.1-0.1-0.2-0.1-0.4-0.1c0-0.1-0.1-0.2-0.2-0.3c-0.1-0.1-0.2-0.1-0.4-0.1   c0-0.1-0.1-0.2-0.3-0.3c-0.1-0.1-0.3,0-0.4,0c-0.1-0.1-0.2-0.2-0.3-0.2c-0.1,0-0.3,0-0.4,0.1c-0.1-0.1-0.2-0.2-0.3-0.2   c-0.1,0-0.3,0-0.3,0.1c-0.1-0.1-0.2-0.1-0.4-0.1c-0.1,0-0.2,0.1-0.3,0.2c-0.1-0.1-0.2-0.1-0.4-0.1c-0.1,0-0.2,0.1-0.3,0.2   c-0.1-0.1-0.2-0.1-0.4,0c-0.1,0.1-0.2,0.2-0.2,0.3c-0.1,0-0.3,0-0.4,0.1c-0.1,0.1-0.2,0.2-0.2,0.3c-0.1,0-0.3,0-0.4,0.1   c-0.1,0.1-0.1,0.2-0.1,0.4c-0.1,0-0.2,0.1-0.3,0.2c-0.1,0.1-0.1,0.2-0.1,0.4c-0.1,0-0.2,0.1-0.3,0.2c-0.1,0.1,0,0.3,0,0.4   c-0.1,0-0.2,0.2-0.2,0.3c0,0.1,0,0.3,0.1,0.4c-0.1,0.1-0.2,0.2-0.2,0.3c0,0.1,0,0.3,0.1,0.3c-0.1,0.1-0.1,0.2-0.1,0.4   c0,0.1,0.1,0.3,0.2,0.3c-0.1,0.1-0.1,0.2-0.1,0.4c0,0.1,0.1,0.2,0.2,0.3c-0.1,0.1-0.1,0.2,0,0.4c0.1,0.1,0.2,0.2,0.3,0.2l0,0   c0,0.1,0,0.3,0.1,0.4c0.1,0.1,0.1,0.1,0.2,0.2c0,0,0,0,0,0l0.7,0.2c0.3,1,0.9,1.8,1.6,2.2l-0.5,0.1c-1.2,0.3-2.1,1.4-2.2,2.7   l-0.1,4.6c0,0.4-0.5,0.7-0.8,0.4c-0.1-0.1-0.2-0.2-0.3-0.2c-0.2-0.2,0,0-0.5-0.3c-0.5-0.3-2.4,0.9-2.5,2c-0.1,0.8,0.2,2.2,0.3,3   c0.1,0.3,0.3,0.4,0.5,0.4l15.8-0.6c0.3,0,0.5-0.2,0.5-0.5l0-1.7c0.2,0.4,0.4,0.7,0.5,1.1c0.2,0.5,0.7,0.8,1.3,0.8L82.1,83   c0.3,0,0.5-0.2,0.7-0.5c0.1-0.1,0.1-0.3,0.1-0.4c0-0.4-0.1-1-0.1-1.9C82.5,77.4,81.3,72.2,81.3,72.2z"/>
        <path fill="#032E3D" d="M43.6,80c-0.5,0.3-0.3,0.1-0.5,0.3c-0.2,0.2-1.1,0.8-1.1,0.8l-0.2-6.2c0-0.5-0.2-0.9-0.4-1.3c-0.3-1-0.6-2.6-0.8-3.8   c0.1-0.4,0.1-0.8,0.1-1.2c0-0.4-0.1-0.9-0.1-1.3c0-0.4,0-0.4,0-0.4s0.1-1.1-0.5-1.8c-0.6-0.7-2.5-0.8-2.5-0.8l0.2,0.1   c-1.6,0-2.9,1.8-3,4c-0.1,0.9-0.3,1.9-0.5,2.8c-1-0.1-1.9,0.3-2.4,1.2l-1.1,2l-0.7,0c-0.3,0-0.5,0.2-0.5,0.4   c-0.1,0.6-0.4,1.9-0.6,3.3c-0.5,0.3-0.3,0.1-0.5,0.3c-0.2,0.2-1.1,0.8-1.1,0.8L27,72.9c0-1.1-0.8-2-1.9-2.3l-1.3-0.3   c0.8-0.5,1.4-1.6,1.4-2.7c0-0.6-0.2-1.2-0.5-1.7c0.1-0.1,0.2-0.5,0.1-0.6c-0.1-0.2-0.7-1.1-1.8-1.2s-2.4,0.3-2.8,0.9   c-0.4,0.7-0.4,0.7-0.4,0.7s-0.5,1.6-0.3,2.8c0,0.1,0.1,0.1,0.2,0.1l0.2,0c0.1,0.3,0.2,0.7,0.4,0.9l-0.8-0.2   c-1.1-0.3-2.1,0.2-2.7,1.2l-1.1,2l-0.4,0c-0.4,0-0.8,0.3-0.9,0.7c-0.3,1.5-1,4.9-1.2,7.1c-0.1,0.8-0.1,1.4-0.1,1.8   c0,0.2,0,0.3,0.1,0.4l0.1,0.1c0.1,0.2,0.4,0.4,0.6,0.4l14.4,1.6c0,0,0,0,0,0l0.4,0l0.6,0.1c0,0,0,0,0,0l15.8,0.8   c0.4,0,0.8-0.3,0.9-0.7c0.2-0.8,0.4-2.1,0.3-2.9C46.1,80.9,44.2,79.7,43.6,80z"/>
        <path fill="#032E3D" d="M63.2,35.3c0,0,0,0.1,0,0.1L62.9,46c0,0.3,0.3,0.6,0.6,0.6c0,0,0,0,0,0c0.3,0,0.6-0.3,0.6-0.6l0.2-5.8l3.7,4.8l-0.5,0.2   c-0.7,0.3-1,1-0.8,1.7l2.2-0.7l0.4,0.6c0,0,0,0,0.1,0.1l0.4,0.7l0.7-0.4c0.1,0,0.3-0.1,0.4-0.2c0.1,0,0.1-0.1,0.1-0.1l2.4-1.2   c-0.3-0.6-1.1-0.9-1.8-0.6L71,45.4l-0.2-0.3l3.1-4.2c0.3,4.1,0.4,4.3,0.4,4.3c0.1,0.3,0.5,0.5,0.8,0.4c0.3-0.1,0.5-0.4,0.4-0.7   c0-0.3-0.2-2.8-0.5-5.5l0.5-0.7c0,0,0-0.1,0.1-0.1c0.4-0.7,0.2-1.6-0.5-2c0,0-0.1,0-0.1-0.1l-0.2-0.3c0-0.3,0-0.6-0.1-0.8   c0-0.3-0.2-0.5-0.5-0.6l2.2-4.5c0,0,0,0,0,0c0.3-0.4,0.3-0.9,0-1.3l-3.9-4.3c-0.1-0.1-0.2-0.2-0.4-0.3c-0.1-0.1-0.3-0.1-0.5-0.1   l-1.4-0.1l0,0c0,0-0.1,0-0.1,0l-0.1,0c-0.1-0.3-0.1-0.9,0-1.1c0.1-0.2,0.1-0.5,0.1-0.7c0-0.4,0-0.7,0-1.1c-0.1-1-0.2-1.3-0.2-1.3   c-0.3-1.3-1.8-1.3-2-1.3c-0.2,0-1.7,0-2,1.3c0,0-0.1,0.3-0.2,1.3c0,0.4,0,0.7,0,1.1c0,0.2,0,0.5,0.1,0.7c0.1,0.3,0,1,0,1.1   c-0.2,0.1-0.4,0.2-0.5,0.3c-0.1,0-0.3,0.1-0.4,0.2l0,0L63.9,25c-0.3,0.2-0.6,0.5-0.6,0.8l-0.7,8.4C62.6,34.7,62.8,35.1,63.2,35.3z    M74.4,29.8l-0.8,1.7l-0.4-3.1L74.4,29.8z M69.2,23c0-0.1,0.1-0.1,0.1-0.1c0.1,0,0.1,0.1,0.1,0.1v0.6c0,0.1-0.1,0.1-0.1,0.1   c-0.1,0-0.1-0.1-0.1-0.1V23z M68.3,36.2l4,1.8l0.2,0.1L69.4,43l-2.9-4.5L68.3,36.2z M66.3,23c0-0.1,0.1-0.1,0.1-0.1   c0.1,0,0.1,0.1,0.1,0.1v0.6c0,0.1-0.1,0.1-0.1,0.1c-0.1,0-0.1-0.1-0.1-0.1V23z"/>
        <path fill="#032E3D" d="M22,32.5l1.8,3.8c-0.2,0.1-0.4,0.3-0.4,0.6l0,1.3c-0.1,0-0.2,0.1-0.4,0.2c-0.6,0.5-0.8,1.4-0.3,2l0.6,0.8L23.1,47   c0,0.3,0.3,0.6,0.6,0.6c0,0,0,0,0,0c0.3,0,0.6-0.3,0.6-0.6l0.1-4.3l2.7,3.7l-0.1,0.2l-0.5-0.2c-0.6-0.3-1.3,0-1.7,0.6l2.1,1.1   c0.1,0.1,0.1,0.1,0.2,0.2c0.2,0.1,0.4,0.2,0.6,0.2l0.5,0.3l0.3-0.5c0.1-0.1,0.1-0.1,0.2-0.2l0.4-0.6l2,0.7c0.2-0.6-0.1-1.3-0.7-1.6   l-0.4-0.2l3.6-4.6c0.3,4.3,0.4,4.4,0.4,4.5c0.1,0.3,0.5,0.5,0.8,0.4c0.3-0.1,0.5-0.4,0.4-0.7c-0.1-0.5-0.4-5.4-0.7-8.8   c0.3-0.2,0.5-0.5,0.5-0.9l-0.6-8c0-0.3-0.2-0.6-0.5-0.8l-1.5-0.7l-0.9-0.2c0.5-0.4,0.9-1.1,0.9-1.8c0-1.3-0.9-2.2-2.2-2.2   c-1.3,0-2.1,0.9-2.1,2.2c0,0.7,0.2,1.4,0.7,1.8l-2.2,0.1c0,0-0.1,0-0.1,0c-0.3,0-0.5,0.1-0.7,0.3L22,31.2   C21.7,31.5,21.7,32.1,22,32.5C21.9,32.5,21.9,32.5,22,32.5z M29.7,38.1l1.6,2.1l-2.7,4.2l-2.8-4.5L29.7,38.1z M25.1,30.8l-0.4,2.7   L24,32L25.1,30.8z"/>
        <path fill="#032E3D" d="M43.5,32.8c-0.3,0.3-0.4,0.6-0.4,1c0,0.3,0.1,0.6,0.3,0.8l-0.3,9.2c0,0.3,0.3,0.6,0.6,0.6c0,0,0,0,0,0   c0.3,0,0.6-0.3,0.6-0.6l0.3-8.6l5.9,0l0.8,7.9c0,0.1,0,0.1,0,0.2l-0.1,0.1l-0.3,2.6c0,0.2,0.1,0.4,0.3,0.5l0.9,0.2   c0.2,0,0.4-0.1,0.5-0.3l1-3.2l-0.1,0c0,0,0-0.1,0-0.1l-0.3-7.7l0.6,0c0,0,0,0,0,0l0,0.2c0,0.2,0.1,0.4,0.2,0.6   c0.5,6.7,0.6,6.9,0.6,7c0.1,0.3,0.5,0.5,0.8,0.4c0.3-0.1,0.5-0.4,0.4-0.7c-0.1-0.4-0.3-3.5-0.5-6.6l0-3.6h-1.2l-0.2-1.4   c0,0,0.1,0,0.1,0c0.7-0.2,1.1-0.8,0.9-1.5l-1.8-7.4c-0.2-0.7-0.8-1.1-1.5-0.9c0,0-0.1,0-0.1,0c-0.1,0-0.2,0-0.3,0l0-0.1   c0,0,0,0,0-0.1c0-0.1,0,0,0-1.4c0-0.9-0.6-1.7-0.9-2.1c-0.2-0.2-0.5-0.4-0.8-0.4l-0.3,0c-0.1,0-0.1,0-0.2,0   c-0.1-0.1-0.3-0.2-0.6-0.1l-0.3,0c-0.3,0-0.6,0.2-0.8,0.4c-0.4,0.4-0.9,1.2-0.9,2.1c0,1.4,0,1.3,0,1.4s0,0.1,0,0.1l0.1,0.5l-0.1,0   c-0.6-0.1-1.2,0.3-1.4,0.9l-1.8,7.4c-0.1,0.6,0.2,1.2,0.8,1.4l-0.1,1.3C43.7,32.6,43.6,32.7,43.5,32.8z"/>
        <path fill="#032E3D" d="M93.9,59.7v-11c0-0.3-0.3-0.6-0.6-0.6s-0.6,0.3-0.6,0.6v10.6h-6.4c-0.3,0-0.6,0.3-0.6,0.6v6.3c0,0.3,0.3,0.6,0.6,0.6   c0.3,0,0.6-0.3,0.6-0.6v-5.7h5.7v1.7c0,0.1,0,0.2,0.1,0.2v3.8c0,0.3,0.3,0.6,0.6,0.6c0.3,0,0.6-0.3,0.6-0.6v-6.3   C93.9,59.8,93.9,59.7,93.9,59.7z"/>
        <path fill="#032E3D" d="M9.8,54.9H3.5V44.3c0-0.3-0.3-0.6-0.6-0.6c-0.3,0-0.6,0.3-0.6,0.6v11c0,0.1-0.1,0.2-0.1,0.2v6.3c0,0.3,0.3,0.6,0.6,0.6   s0.6-0.3,0.6-0.6v-3.8c0-0.1,0.1-0.2,0.1-0.2v-1.7h5.7v5.7c0,0.3,0.3,0.6,0.6,0.6c0.3,0,0.6-0.3,0.6-0.6v-6.3   C10.4,55.2,10.2,54.9,9.8,54.9z"/>
    </g>
</svg>